<?xml version="1.0" standalone="no"?>
<!DOCTYPE svg PUBLIC "-//W3C//DTD SVG 1.1//EN" "http://www.w3.org/Graphics/SVG/1.1/DTD/svg11.dtd" >
<svg xmlns="http://www.w3.org/2000/svg">
<defs>
  <font id="gapo-icon" horiz-adv-x="512">
    <font-face font-family="gapo-icon"
      units-per-em="1001" ascent="1001"
      descent="0" />
    <missing-glyph horiz-adv-x="0" />
    <glyph glyph-name="alert-alt"
      unicode="&#xEA01;"
      horiz-adv-x="1072.5" d="M536.25 143C575.73802 143 607.75 175.01055 607.75 214.5C607.75 253.9894500000001 575.73802 286 536.25 286C496.7619800000001 286 464.75 253.9894500000001 464.75 214.5C464.75 175.01055 496.7619800000001 143 536.25 143zM536.25 679.25C555.99401 679.25 572 663.24401 572 643.5V393.25C572 373.50599 555.99401 357.5 536.25 357.5C516.50599 357.5 500.5 373.50599 500.5 393.25V643.5C500.5 663.24401 516.50599 679.25 536.25 679.25zM536.25 1001C549.40171 1001 561.4916450000001 993.7788575 567.72716 982.199075L1068.2243 52.70265C1074.19455 41.6201500000001 1073.89425 28.22105 1067.44495 17.4174C1060.9885 6.61375 1049.334 0 1036.75 0H35.75C23.167001 0 11.510499 6.61375 5.05806015 17.4174C-1.3943501 28.22105 -1.6924479 41.6201500000001 4.2731689 52.70265L504.77284 982.199075C511.008355 993.7788575 523.09829 1001 536.25 1001zM95.603365 71.5H976.89735L536.25 889.843955L95.603365 71.5z" />
    <glyph glyph-name="bookmark-alt"
      unicode="&#xEA02;"
      horiz-adv-x="813.3125" d="M45.8103270625 955.1896729375C75.141941875 984.521538 114.92481 1001 156.40625 1001H656.90625C698.3851875 1001 738.16868125 984.521538 767.5042374999999 955.1896729375C796.8335374999999 925.858058125 813.3125 886.07519 813.3125 844.59375V31.28125C813.3125 20.43916875 807.7006437499999 10.3728625 798.47893125 4.67341875C789.2572187500001 -1.026025 777.7394625 -1.5452937499999 768.042275 3.3032999999999L406.65625 183.9963125000001L45.2706629375 3.3032999999999C35.5738508125 -1.5452937499999 24.0579714375 -1.026025 14.835695875 4.67341875C5.6134953875 10.3728625 0 20.43916875 0 31.28125V844.59375C0 886.07519 16.478462 925.858058125 45.8103270625 955.1896729375zM156.40625 938.4375C131.51763625 938.4375 107.64754 928.5501225 90.04870875 910.95129125C72.4498775 893.3524600000001 62.5625 869.48236375 62.5625 844.59375V81.8943125L392.666649375 246.9467000000001C401.4735725 251.3511 411.8389275 251.3511 420.645850625 246.9467000000001L750.75 81.8943125V844.59375C750.75 869.48236375 740.865125 893.3524600000001 723.26629375 910.95129125C705.6674625 928.5501225 681.7936125 938.4375 656.90625 938.4375H156.40625z" />
    <glyph glyph-name="briefcase"
      unicode="&#xEA03;"
      horiz-adv-x="1001" d="M938.4375 187.6875H625.625C625.625 150.15 600.6 125.125 563.0625 125.125H437.9375C400.4000000000001 125.125 375.375 150.15 375.375 187.6875H62.5625V62.5625C62.5625 25.025 87.5875 0 125.125 0H875.875C913.4125 0 938.4375 25.025 938.4375 62.5625V187.6875zM938.4375 750.75H750.75V938.4375C750.75 975.975 725.725 1001 688.1875 1001H312.8125C275.275 1001 250.25 975.975 250.25 938.4375V750.75H62.5625C25.025 750.75 0 725.725 0 688.1875V312.8125C0 275.275 25.025 250.25 62.5625 250.25H375.375V312.8125C375.375 350.35 400.4000000000001 375.375 437.9375 375.375H563.0625C600.6 375.375 625.625 350.35 625.625 312.8125V250.25H938.4375C975.975 250.25 1001 275.275 1001 312.8125V688.1875C1001 725.725 975.975 750.75 938.4375 750.75zM625.625 750.75H375.375V875.875H625.625V750.75z" />
    <glyph glyph-name="camera-alt"
      unicode="&#xEA04;"
      horiz-adv-x="1112.2222222222222" d="M556.109998888889 222.4388833333333C684.0834 222.4388833333333 787.8203666666667 326.1814111111111 787.8203666666667 454.1531438888888C787.8203666666667 582.1243205555555 684.0834 685.8657361111111 556.109998888889 685.8657361111111C428.1382661111112 685.8657361111111 324.3968505555556 582.1243205555555 324.3968505555556 454.1531438888888C324.3968505555556 326.1814111111111 428.1382661111112 222.4388833333333 556.109998888889 222.4388833333333zM973.1944444444443 37.0703666666666H139.0266655555556C114.4448861111111 37.0703666666666 90.8702238888889 46.8356777777776 73.488415 64.2141499999999C56.1066061111111 81.5981833333334 46.3414618333333 105.1717333333334 46.3414618333333 129.7574055555555V732.2086994444444C46.3414618333333 756.7899227777777 56.1066061111111 780.3651411111111 73.488415 797.74695C90.8702238888889 815.1287588888889 114.4448861111111 824.893513888889 139.0266655555556 824.893513888889H324.3968505555556L417.0822211111112 963.921402888889H695.1388888888889L787.8203666666667 824.893513888889H973.1944444444443C997.7745555555556 824.893513888889 1021.3481055555555 815.1287588888889 1038.732138888889 797.74695C1056.1106111111112 780.3651411111111 1065.8759222222222 756.7899227777777 1065.8759222222222 732.2086994444444V129.7574055555555C1065.8759222222222 105.1717333333334 1056.1106111111112 81.5981833333334 1038.732138888889 64.2141499999999C1021.3481055555555 46.8356777777776 997.7745555555556 37.0703666666666 973.1944444444443 37.0703666666666zM185.370185 639.5322266666667C210.9646427777778 639.5322266666667 231.7131483333334 660.2807322222222 231.7131483333334 685.8746338888889C231.7131483333334 711.4690916666666 210.9646427777778 732.2175972222223 185.370185 732.2175972222223C159.7762833333334 732.2175972222223 139.0277777777778 711.4690916666666 139.0277777777778 685.8746338888889C139.0277777777778 660.2807322222222 159.7762833333334 639.5322266666667 185.370185 639.5322266666667z" />
    <glyph glyph-name="like"
      unicode="&#xEA05;"
      horiz-adv-x="1001" d="M386.750455 130.7760999999999C386.750455 204.75 386.75 182 386.75 113.75L441.4259850000001 82.69625C461.734 76.8904500000001 482.755 73.94205 503.8761 73.9375H689.0975C745.49475 73.9375 799.8854499999999 94.8857 841.7090499999999 132.71895C883.5371999999999 170.5522 909.82255 222.57235 915.46 278.6875L926.835 472.0625C928.8461 511.53375 917.09345 550.4817499999999 893.5790499999999 582.25076C870.0691999999999 614.020225 836.25815 636.64146 797.91985 646.2515149999999L742.7511000000001 658.309015C730.4206 661.3666149999999 719.46875 668.463705 711.64275 678.469155C703.8122000000001 688.474605 699.5625 700.812385 699.5625 713.515985V841.75C699.5625 864.37624 690.57625 886.075645 674.5739 902.075265C658.5761 918.07443 636.8771499999999 927.0625 614.25 927.0625C591.6228500000001 927.0625 569.9239 918.07443 553.9261 902.075265C537.9283 886.075645 528.9375 864.37624 528.9375 841.75V782.8275C528.9375 707.4067 540.23515 687.95363 523.25 637C500.5 568.75 462.1708 498.4525 386.750455 498.4525V130.7760999999999zM244.5625 585.8125H73.9375V73.9375H244.5625V585.8125z" />
    <glyph glyph-name="verify"
      unicode="&#xEA06;"
      horiz-adv-x="1001" d="M1001 500.5C1001 557.0258443749999 972.70298125 606.556575625 929.603675 636.5233875C906.35545 652.6882862499999 895.10045625 679.86919 900.10545625 707.73703C909.38973125 759.4011425 894.37473125 814.438625 854.40980625 854.407929375C814.438625 894.37723375 759.40239375 909.392859375 707.73828125 900.108584375C679.8666875 895.10045625 652.6895375 906.358578125 636.5233875 929.60492625C606.5565756249999 972.7010418125 557.0239675 1001 500.5 1001C443.9760325 1001 394.443424375 972.7010418125 364.475986875 929.60492625C348.31171375 906.358578125 321.131435625 895.10045625 293.263595625 900.108584375C241.599483125 909.392859375 186.562000625 894.37723375 146.59269625 854.407929375C106.623391875 814.438625 91.608391875 759.4011425 100.8932925 707.73703C105.90204625 679.86919 94.64329875 652.6882862499999 71.396325 636.5233875C28.298895625 606.556575625 0 557.0258443749999 0 500.5C0 443.974155625 28.298895625 394.4434243750001 71.396325 364.4766125C94.64329875 348.3104625 105.90204625 321.1333125 100.8932925 293.26171875C91.608391875 241.59760625 106.623391875 186.561375 146.59269625 146.59645C186.561375 106.62526875 241.598231875 91.6102687499999 293.262344375 100.89454375C321.130184375 105.9058 348.31171375 94.64455 364.475986875 71.3963249999999C394.442173125 28.3032750000001 443.9741556250001 0 500.5 0C557.025844375 0 606.557826875 28.3032750000001 636.5233875 71.3963249999999C652.6895375 94.64455 679.87294375 105.9058 707.73828125 100.89454375C759.40239375 91.6102687499999 814.438625 106.62526875 854.40980625 146.59645C894.37473125 186.561375 909.38973125 241.59760625 900.10545625 293.26171875C895.10045625 321.1333125 906.35545 348.3104625 929.603675 364.4766125C972.70298125 394.4434243750001 1001 443.974155625 1001 500.5zM750.75 610.904669375L671.12670625 688.1875L443.625056875 467.3787868749999L329.875170625 577.782830625L250.25 500.5L443.625056875 312.8125L750.75 610.904669375z" />
    <glyph glyph-name="close-alt"
      unicode="&#xEA07;"
      horiz-adv-x="1001" d="M959.2916666666669 959.2916666666666L41.7083333333333 41.7083333333333M41.7083333333333 959.2916666666666L959.2916666666669 41.7083333333333" />
    <glyph glyph-name="comment-alt"
      unicode="&#xEA08;"
      horiz-adv-x="1001" d="M667.7504166666668 497.9974999999999A66.73333333333333 66.73333333333333 0 0 0 601.225625 564.564A66.73333333333333 66.73333333333333 0 0 0 667.7504166666668 631.1305C704.3703333333334 631.1305 734.3169166666668 601.1422083333333 734.3169166666668 564.564A66.73333333333333 66.73333333333333 0 0 0 667.7504166666668 497.9974999999999M501.3341666666668 497.9974999999999A66.73333333333333 66.73333333333333 0 0 0 434.7676666666668 564.564C434.7676666666668 601.1422083333333 464.71425 631.1305 501.3341666666668 631.1305C537.9540833333334 631.1305 567.9423750000001 601.1422083333333 567.9423750000001 564.564C567.9423750000001 527.9440833333333 537.912375 497.9974999999999 501.3341666666668 497.9974999999999M334.9179166666667 497.9974999999999A66.81675 66.81675 0 0 0 268.3097083333334 564.564C268.3097083333334 601.1422083333333 298.3397083333334 631.1305 334.9179166666667 631.1305C371.5795416666668 631.1305 401.4844166666668 601.1422083333333 401.4844166666668 564.564A66.73333333333333 66.73333333333333 0 0 0 334.9179166666667 497.9974999999999M774.2317916666667 834.1666666666666H233.3998333333334A66.73333333333333 66.73333333333333 0 0 1 166.8333333333334 767.6001666666666V359.8594999999999A66.73333333333333 66.73333333333333 0 0 1 233.3998333333334 293.293H439.7726666666668L546.2957500000001 182.5990833333333A40.87416666666666 40.87416666666666 0 0 1 578.703125 166.8333333333333C592.8839583333333 166.8333333333333 606.230625 174.3408333333333 613.7381250000001 185.9357499999999A32.19883333333333 32.19883333333333 0 0 1 617.86725 195.1115833333332L645.3113333333333 293.2929999999998H774.2317916666667C810.8934166666667 293.2929999999998 840.84 323.2395833333332 840.84 359.8594999999998V767.6001666666666C840.84 804.2200833333334 810.8934166666667 834.1666666666666 774.2317916666667 834.1666666666666" />
    <glyph glyph-name="config"
      unicode="&#xEA09;"
      horiz-adv-x="1001" d="M439.8560833333334 899.3150833333333C447.5095625 890.8190958333333 456.8647416666666 884.0260595833333 467.3085083333334 879.3764145833334C477.7564458333334 874.7263525 489.063575 872.3239525 500.5 872.3239525C511.936425 872.3239525 523.2435541666666 874.7263525 533.6914916666667 879.3764145833334C544.1352583333334 884.0260595833333 553.4904375 890.8190958333333 561.1439166666668 899.3150833333333L600.6 942.6083333333333C611.9071291666667 955.12291875 626.8136875 963.8317855833334 643.2676250000001 967.5388639583334C659.7215625000001 971.2459423333333 676.9179083333335 969.769801 692.5001416666668 963.312975625C708.0823750000001 956.8563170833334 721.2872333333335 945.7352070833334 730.2962333333334 931.4763791666666C739.3052333333334 917.21755125 743.6846083333334 900.51962 742.8254166666667 883.6744583333333L739.8641250000001 825.2827916666666C739.2927208333334 813.89182875 741.1112041666667 802.5071220833333 745.2069625 791.8623212499999C749.29855 781.2175204166666 755.579825 771.5482775 763.6378750000001 763.477715C771.695925 755.4071524999999 781.355575 749.1141991666666 791.9953708333334 745.0038429166666C802.6351666666667 740.8939037499999 814.0173708333334 739.0574858333333 825.4079166666667 739.613875L883.7995833333334 742.5751666666667C900.6330666666667 743.4047454166666 917.3122291666668 739.00827 931.5514541666668 729.98800875C945.7906791666668 720.9673304166666 956.8892666666666 707.7645574999999 963.3290333333334 692.1885804166666C969.7688 676.6126033333333 971.2369333333334 659.4262675 967.5248916666666 642.9844254166667C963.8170208333333 626.5430004166667 955.1124916666666 611.65104 942.6083333333333 600.34975L899.1482500000001 561.1439166666667C890.6606041666668 553.477925 883.8788291666667 544.118575 879.2366916666667 533.6706374999999C874.5945541666667 523.2227 872.196325 511.9114 872.196325 500.4791458333333C872.196325 489.0427208333334 874.5945541666667 477.7355916666667 879.2366916666667 467.2876541666666C883.8788291666667 456.8397166666666 890.6606041666668 447.4803666666667 899.1482500000001 439.814375L942.6083333333333 400.6085416666666C955.1250041666666 389.3014125 963.8337041666666 374.3948541666666 967.5374041666668 357.9409166666667C971.2452750000002 341.4869791666667 969.7688 324.2864624999999 963.31235 308.7042291666666C956.8559000000002 293.1219958333333 945.7364583333334 279.9213083333333 931.4763791666668 270.9123083333333C917.2163 261.9033083333333 900.5204541666668 257.5239333333333 883.6744583333334 258.383125L825.2827916666666 261.3444166666666C813.8672208333335 261.9325041666667 802.4558208333333 260.1140208333333 791.7826583333333 256.0140916666667C781.1136666666667 251.9141625 771.4248208333333 245.6162041666667 763.3417458333333 237.5331291666667C755.2586708333334 229.4500541666667 748.9607125000001 219.7612083333332 744.8607833333333 209.0880458333334C740.7608541666667 198.4190541666667 738.9423708333334 187.0076541666666 739.5304583333334 175.5920833333333L742.49175 117.2004166666666C743.2383291666667 100.4378375 738.8089041666667 83.8546041666666 729.7999041666666 69.6987958333333C720.7950750000001 55.5471583333333 707.6486083333334 44.5069625 692.1497916666667 38.0838791666666C676.6509750000001 31.6607958333333 659.5505583333334 30.1634666666665 643.1716958333334 33.7962625C626.7928333333334 37.4290583333333 611.9279833333334 46.0168041666667 600.6 58.3916666666665L561.3524583333334 101.8100416666666C553.6906375 110.2935166666666 544.3354583333333 117.0752916666666 533.8916916666667 121.7174291666665C523.4437541666667 126.3595666666665 512.1407958333333 128.7619666666666 500.7085416666667 128.7619666666666C489.2762875 128.7619666666666 477.9733291666666 126.3595666666665 467.5253916666667 121.7174291666665C457.081625 117.0752916666666 447.7264458333334 110.2935166666666 440.0646250000001 101.8100416666666L400.6502500000001 58.3916666666665C389.3393670833334 45.9584125 374.4695120833333 37.3164458333333 358.06771 33.6419416666666C341.6663250000001 29.9716083333332 324.5308733333334 31.4439125 308.9978558333334 37.8669958333334C293.4648383333334 44.2859083333334 280.2900100000001 55.3427874999999 271.26974875 69.5236208333332C262.2490704166667 83.708625 257.8217308333334 100.3252249999999 258.5912495833333 117.117L261.5942495833334 175.5086666666665C262.1815029166667 186.9242375 260.3655220833334 198.3356374999999 256.2639245833334 209.0046291666666C252.1623270833334 219.6777916666666 245.8660370833334 229.3666375 237.7833791666667 237.4497125000001C229.7003041666667 245.5327875000001 220.0102070833334 251.826575 209.34038125 255.930675C198.6701383333334 260.0306041666667 187.25832125 261.8490874999999 175.8423333333334 261.261L117.4502495833334 258.2997083333334C100.6121783333333 257.4196625 83.9146641666667 261.7740124999999 69.6499970833333 270.7663291666667C55.3857470833333 279.754475 44.2537929166667 292.9426499999999 37.7826615833333 308.5123708333332C31.3114885416667 324.0820916666666 29.8184553333333 341.2742666666666 33.5084332916667 357.7240333333333C37.19841125 374.1779708333333 45.8904279166667 389.0845291666666 58.3912495833333 400.4L101.8096245833334 439.6058333333333C110.295185 447.2718250000001 117.07821125 456.631175 121.7211829166667 467.0791125C126.3637375 477.5270499999999 128.76238375 488.8341791666667 128.76238375 500.2706041666667C128.76238375 511.7028583333333 126.3637375 523.0141583333333 121.7211829166667 533.4620958333333C117.07821125 543.9100333333333 110.295185 553.2693833333333 101.8096245833334 560.935375L58.3912495833333 600.34975C45.930885 611.65229125 37.26547825 626.5275683333333 33.5792123333333 642.9418829166666C29.892988125 659.3561975 31.365959625 676.5083324999999 37.7968007083333 692.0538624999999C44.2275166666667 707.5993925 55.3027475 720.7792258333334 69.5077716666667 729.7923966666667C83.7127958333333 738.8051504166667 100.3544208333333 743.21121875 117.1587083333334 742.4083333333333L175.550375 739.4470416666667C186.9876341666667 738.8456074999999 198.4240591666667 740.6565833333334 209.1159904166667 744.7631858333334C219.8079216666667 748.86937125 229.5167875 755.1785908333334 237.6115408333334 763.28126875C245.70671125 771.3839466666666 252.0063379166667 781.09906875 256.1025133333333 791.7951708333333C260.1982716666667 802.4908558333334 261.9984033333334 813.9289491666666 261.3857079166667 825.3662083333334L258.5912495833333 883.7995833333333C257.8033791666667 900.5967804166667 262.2173720833333 917.2283954166666 271.2309600000001 931.42424375C280.2445479166667 945.6205091666666 293.4185420833334 956.6899008333334 308.9557304166667 963.1218680416666C324.49291875 969.5538769583334 341.636295 971.03531525 358.0468558333334 967.364022625C374.4569995833334 963.69273 389.3347791666667 955.0474266666666 400.6502500000001 942.6083333333333L439.8560833333334 899.3150833333333zM500.5 312.7707916666666C604.1577208333334 312.7707916666666 688.1875 396.8005708333333 688.1875 500.4582916666666C688.1875 604.11476125 604.1577208333334 688.1453745833333 500.5 688.1453745833333C396.8431133333334 688.1453745833333 312.8125 604.11476125 312.8125 500.4582916666666C312.8125 396.8005708333333 396.8431133333334 312.7707916666666 500.5 312.7707916666666z" />
    <glyph glyph-name="emotion-alt"
      unicode="&#xEA0A;"
      horiz-adv-x="1001" d="M500.5 31.28125C759.643885 31.28125 969.71875 241.3561150000001 969.71875 500.5C969.71875 759.6423835 759.643885 969.71875 500.5 969.71875C241.3576165 969.71875 31.28125 759.6423835 31.28125 500.5C31.28125 241.3561150000001 241.3576165 31.28125 500.5 31.28125zM350.35 625.625C350.35 604.8937895 333.5437105 588.0875000000001 312.8125 588.0875000000001C292.0812895 588.0875000000001 275.275 604.8937895 275.275 625.625C275.275 646.3562105000001 292.0812895 663.1625 312.8125 663.1625C333.5437105 663.1625 350.35 646.3562105000001 350.35 625.625zM725.7249999999999 625.625C725.7249999999999 604.8937895 708.9182099999999 588.0875000000001 688.1875 588.0875000000001C667.45679 588.0875000000001 650.65 604.8937895 650.65 625.625C650.65 646.3562105000001 667.45679 663.1625 688.1875 663.1625C708.9182099999999 663.1625 725.7249999999999 646.3562105000001 725.7249999999999 625.625zM688.1875 387.8875000000001C668.7230549999999 355.5001450000001 641.21057 328.69837 608.3227149999999 310.08978C575.429855 291.4861950000001 538.28775 281.7064250000001 500.5 281.7064250000001C462.7127505 281.7064250000001 425.568143 291.4861950000001 392.679287 310.08978C359.7899305 328.69837 332.275944 355.5001450000001 312.8125 387.8875000000001" />
    <glyph glyph-name="friends-alt"
      unicode="&#xEA0B;"
      horiz-adv-x="1067.7333333333333" d="M652.3183333333334 247.3871400000001L487.9541333333333 294.1004733333333C481.7546066666667 295.8622333333334 476.1990566666666 299.3857533333334 471.959488 304.2439400000001C467.7199193333333 309.0954533333334 464.9771793333334 315.07476 464.0636 321.46114L450.2498 418.68827C485.1213033333333 434.6255246666666 514.6835026666666 460.2411146666667 535.4215533333333 492.4893306666667C556.1589366666666 524.7375466666667 567.200634 562.2630346666666 567.2333333333333 600.6033366666667V692.2949366666667C568.0428086666667 745.3853073333333 548.3024213333333 796.733938 512.137626 835.6094413333333C475.9728306666667 874.4849446666667 426.1830906666667 897.8796493333333 373.1728 900.9033366666666C346.370024 901.7261586666666 319.675356 897.1555926666666 294.6730453333334 887.4632433333334C269.6700673333334 877.770894 246.8699566666667 863.1549593333333 227.6240633333334 844.4823053333333C208.3788373333333 825.808984 193.080888 803.460658 182.6377886666667 778.761984C172.1953566666667 754.06331 166.820654 727.5187920000001 166.8333333333334 700.7033366666667V600.6033366666667C166.8660326666667 562.2630346666666 177.90773 524.7375466666667 198.6451133333334 492.4893306666667C219.383164 460.2411146666667 248.9453633333333 434.6255246666666 283.8168666666667 418.68827L270.0030666666667 321.7280733333334C269.0894873333334 315.3416933333334 266.3467473333334 309.3623866666667 262.1071786666667 304.5108733333334C257.86761 299.6526866666666 252.31206 296.1291666666666 246.1125333333334 294.3674066666666L81.7483333333333 247.6540733333334C67.813746 243.6634200000001 55.5554332666667 235.2483466666667 46.8266465333333 223.6834600000001C38.0978598 212.1119 33.3730730666667 198.0111466666666 33.3666666666667 183.52334V33.37334H700.7V183.2564066666666C700.6933266666667 197.7442133333334 695.9686066666667 211.8449666666667 687.2398866666666 223.4165266666667C678.5111666666667 234.9814133333333 666.2529206666667 243.3964866666667 652.3183333333334 247.3871400000001V247.3871400000001zM834.1666666666666 33.3666666666667H1034.3666666666668V248.1812666666666C1034.3666666666668 263.0628000000001 1029.3950333333332 277.5105666666667 1020.23922 289.2356133333333C1011.09008 300.9673333333333 998.27728 309.3023266666667 983.8495333333334 312.9126L789.1884 361.563202C782.7419600000001 363.170808 776.9294866666667 366.6656326666668 772.4783733333334 371.599228C768.0339333333334 376.5328233333334 765.1644 382.6816326666666 764.2301333333334 389.2575353333334L750.5498 485.4202686666666C785.4246400000001 501.356856 814.9808333333334 526.972446 835.7215533333334 559.220662C856.4622733333333 591.4695453333334 867.4999666666666 628.994366 867.5333333333333 667.3353353333333V759.0269353333333C868.3408066666667 812.1166386666666 848.6010866666667 863.4652693333333 812.4382933333334 902.3407726666666C776.2755000000001 941.2167431333334 726.48576 964.6111808666668 673.4728 967.6351351333332C636.2669646666667 968.7871526666667 599.4762106666667 959.5433180666666 567.2333333333333 940.9418685333334" />
    <glyph glyph-name="friends"
      unicode="&#xEA0C;"
      horiz-adv-x="1001" d="M955.6380166666668 357.0450216666667L818.7546033333333 396.1465841666667C807.6918850000001 399.3097441666667 797.7152516666667 405.4625575 789.9224666666667 413.928515C782.1296816666667 422.3944725 776.8235475 432.8457466666667 774.5854783333334 444.1320216666666L766.2021033333334 486.3617091666666C798.8939291666667 501.3033024999999 826.6082825000001 525.3172924999999 846.0535416666668 555.549995C865.489625 585.7826974999999 875.8416333333333 620.9628425000001 875.875 656.9070841666667V742.8679591666667C876.6340916666667 792.6401816666666 858.1239333333334 840.7791058333333 824.2217316666666 877.2255158333334C790.3178616666667 913.6710916666668 743.6395633333333 935.603669 693.9424158333334 938.4386678333332C656.8445216666667 939.5580360833334 620.2471275 929.6531410833334 588.7773558333334 909.9765675C557.3075841666666 890.29941 532.3785133333333 861.7333725 517.1407908333333 827.8903966666667C546.98644 784.4545041666667 562.9940983333333 733.0072749999999 563.0616658333334 680.3054591666667V594.3445841666667C562.9498875 571.5868491666666 559.6857933333334 548.953405 553.3644783333334 527.0898966666666C569.5831808333334 510.0770675 588.8524308333334 496.260765 610.1712283333334 486.3617091666666L601.7878533333334 444.1945841666666C599.5506183333334 432.9083091666667 594.24365 422.457035 586.450865 413.9910775C578.65808 405.52512 568.6814466666667 399.3723066666667 557.6187283333334 396.2091466666667L504.8785408333333 381.1315841666666L597.4710408333334 354.6676466666667C623.5721158333333 347.1284483333333 646.5233775 331.3259949999999 662.8805516666667 309.6334908333334C679.2368916666667 287.9409866666668 688.1165958333333 261.5287675000001 688.1866658333334 234.3599591666666V93.84375C688.0832291666667 83.1664166666666 686.1354500000001 72.5808416666666 682.4309158333333 62.5625H969.71875C978.0103666666666 62.5625 985.9683166666669 65.8574583333333 991.84085 71.72165C997.7050416666668 77.5941833333333 1001 85.5521333333334 1001 93.84375V296.9224591666666C1000.9916583333334 310.5102 996.5622333333334 323.7267366666665 988.3790583333334 334.5734058333333C980.1958833333334 345.4209091666667 968.7010666666667 353.3087891666667 955.6380166666668 357.0450216666667zM580.2671875 294.4825216666667L443.3804375000001 333.5840841666667C432.3093775000001 336.7522491666666 422.3277391666668 342.9142383333333 414.53412 351.3918741666667C406.7405008333334 359.86951 401.4385375000001 370.3341308333333 399.2113125 381.6320841666666L390.8279375 423.8617716666667C423.5105875 438.79836 451.2182675 462.8031741666666 470.6593558333333 493.0233641666667C490.1004441666667 523.2443883333333 500.4574575 558.4103525 500.5 594.3445841666667V680.3054591666667C501.2590916666667 730.0776816666666 482.75227 778.2166058333333 448.8475658333334 814.6621816666666C414.9436958333334 851.1085916666666 368.2653975 873.0405016666666 318.5682500000001 875.8758341666667C293.4406475 876.6466041666666 268.4139791666667 872.36149 244.97473 863.2757466666667C221.5346466666667 854.1891691666667 200.1591258333333 840.4863133333333 182.116935 822.9804916666667C164.07391 805.47467 149.7320825 784.5229058333333 139.9423025 761.3681075C130.1516883333334 738.2133091666667 125.1133216666667 713.3276149999999 125.125 688.1883341666667V594.3445841666667C125.1558641666667 558.4003425000001 135.5070383333334 523.2201974999999 154.9489608333333 492.987495C174.3908833333333 462.7547925 202.1052366666667 438.7399683333333 234.7970625 423.7992091666667L226.4136875 381.6320841666666C224.1764525 370.3458091666667 218.8694841666667 359.894535 211.0766991666667 351.4285775C203.2839141666667 342.96262 193.3072808333334 336.8098066666667 182.2445625 333.6466466666667L45.3578125 294.5450841666667C32.2838349166667 290.8055149999999 20.7841800833333 282.9084591666666 12.5999206666667 272.0484433333333C4.415636225 261.1884275 -0.007547314775 247.9585441666667 0.0000096672409 234.3599591666666V93.84375C0.0000096672409 85.5521333333334 3.2957007416667 77.5941833333333 9.1620695833333 71.72165C15.0284300833333 65.8574583333333 22.984962 62.5625 31.28125 62.5625H594.34375C602.6403716666666 62.5625 610.5966533333334 65.8574583333333 616.4633475 71.72165C622.3292075 77.5941833333333 625.625 85.5521333333334 625.625 93.84375V234.3599591666666C625.6191608333334 247.9477 621.1897358333334 261.1642366666665 613.0065608333333 272.0109058333334C604.8233858333334 282.857575 593.3310716666667 290.7462891666666 580.2671875 294.4825216666667z" />
    <glyph glyph-name="globe-alt"
      unicode="&#xEA0D;"
      horiz-adv-x="969.71875" d="M484.859375 985.359375C217.07232421875 985.359375 0 768.28705078125 0 500.5S217.07232421875 15.640625 484.859375 15.640625S969.71875 232.71294921875 969.71875 500.5S752.6464257812501 985.359375 484.859375 985.359375zM462.6887890625 515.69095703125C457.03861328125 506.26748046875 446.85265625 500.5 435.8651171875 500.5H435.25904296875C426.96951171875 500.5 419.01234375 497.19591796875 413.147109375 491.33068359375L402.0813671875 480.2649414062499C395.9815234375 474.1650976562499 395.9815234375 464.2528515624999 402.0813671875 458.1530078124999L413.147109375 447.0872656249999C419.01234375 441.2220312499999 422.31642578125 433.2648632812499 422.31642578125 424.9753320312499V406.65625C422.31642578125 389.3733593750001 408.31806640625 375.375 391.03517578125 375.375H379.0896484375C367.241875 375.375 356.4107421875 382.0613671875001 351.11248046875 392.6774414062501L306.88861328125 481.105625C302.11822265625 490.6464062500001 289.3906640625 492.7187890625001 281.8440625 485.1721875000001L243.77869140625 447.1263671875002C237.91345703125 441.2611328125002 229.9562890625 437.9570507812502 221.6667578124999 437.9570507812502H99.33751953125C96.0334375 458.36806640625 93.84375 479.1505468749999 93.84375 500.5C93.84375 716.106015625 269.253359375 891.515625 484.859375 891.515625C526.91310546875 891.515625 567.363671875 884.65330078125 605.35083984375 872.3167578125L507.2841210937501 796.98759765625C497.293671875 790.32078125 498.2321093750001 775.3644335937499 508.9654882812501 769.9879687499999L530.1389843750001 759.41099609375C540.7355078125 754.1127343750001 547.421875 743.2816015625 547.421875 731.433828125V578.703125C547.421875 570.0616796875 540.4226953125001 563.0625 531.78125 563.0625H525.7987109375C519.8748242187501 563.0625 514.4592578125 566.40568359375 511.81990234375 571.7039453125C508.76998046875 577.8037890625 500.16763671875 578.1361523437499 496.6484960937501 572.29046875L462.6887890625001 515.69095703125zM797.671875 300.24134765625C797.671875 291.9518164062499 794.36779296875 283.9946484375 788.50255859375 278.1294140625L769.7924609375 259.41931640625C763.9272265625 253.55408203125 755.9700585937501 250.25 747.68052734375 250.25H718.0415429687499C709.7520117187499 250.25 701.7948437499999 253.55408203125 695.9296093749999 259.41931640625L670.49404296875 284.8548828125A52.331576171875 52.331576171875 0 0 1 620.7959570312499 298.6186328125L579.2114453125 288.2176171875001C576.72849609375 287.5919921875001 574.18689453125 287.2791796875 571.6257421875 287.2791796875H551.4102343750001C543.120703125 287.2791796875 535.1635351562501 290.58326171875 529.2983007812501 296.44849609375L506.0133203125 319.7334765625001A15.656265624999998 15.656265624999998 0 0 0 501.4384375 330.7992187500002V350.7410156250001C501.4384375 357.1341210937501 505.3290429687501 362.88205078125 511.27248046875 365.2672460937501L588.1852539062501 396.0401757812502C592.05630859375 397.5846875000001 595.73185546875 399.5984179687502 599.114140625 402.0031640625001L645.4690429687499 435.0244335937502A15.597613281250002 15.597613281250002 0 0 0 654.54060546875 437.9179492187501H678.1774999999999C684.4924023437499 437.9179492187501 690.2012304687498 434.1250976562501 692.6255273437498 428.2794140625001L703.0851953124999 403.1566601562501A7.8203125 7.8203125 0 0 1 710.2994335937499 398.3471679687501H717.7287304687499C721.2087695312499 398.3471679687501 724.2782421874999 400.6541601562501 725.2362304687499 403.9777929687501L733.4475585937498 432.2677734375002C734.4250976562498 435.6109570312501 737.4750195312498 437.8983984375002 740.9550585937498 437.8983984375002H752.8028320312497C757.1235546874998 437.8983984375002 760.6231445312497 434.3988085937501 760.6231445312497 430.0780859375002V404.7989257812501C760.6231445312497 400.6541601562501 762.2654101562498 396.6658007812502 765.1980273437498 393.7331835937502L788.4830078124997 370.4482031250001C794.3482421874997 364.5829687500001 797.6523242187498 356.6258007812501 797.6523242187498 348.3362695312501V300.24134765625z" />
    <glyph glyph-name="graduation-cap-alt"
      unicode="&#xEA0E;"
      horiz-adv-x="1067.7333333333333" d="M33.3666666666667 700.7L533.8666666666667 967.6333333333334L1034.3666666666668 700.7L533.8666666666667 433.7666666666667L33.3666666666667 700.7zM166.8333333333334 433.7666666666667V166.8333333333334C166.8333333333334 93.093 331.1308 33.3666666666667 533.8666666666667 33.3666666666667C736.6025333333333 33.3666666666667 900.9 93.093 900.9 166.8333333333334V433.7666666666667M1034.3666666666668 500.5V233.5666666666666" />
    <glyph glyph-name="home-alt"
      unicode="&#xEA0F;"
      horiz-adv-x="1001" d="M31.28125 31.28125H969.71875M31.28125 594.34375L500.5 969.71875L969.71875 594.34375M156.40625 531.78125V31.28125M844.59375 531.78125V31.28125M344.09375 31.28125V312.8125C344.09375 354.2914375000001 360.572086875 394.0768081250001 389.903889375 423.4086106250001C419.235691875 452.740413125 459.01856 469.21875 500.5 469.21875V469.21875C541.98144 469.21875 581.7643081250001 452.740413125 611.096110625 423.4086106250001C640.4272874999999 394.0768081250001 656.90625 354.2914375000001 656.90625 312.8125V31.28125" />
    <glyph glyph-name="lock"
      unicode="&#xEA10;"
      horiz-adv-x="1001" d="M813.3125 604.7708333333333H782.03125V719.46875C782.03125 794.1358425 752.3699516666667 865.7440458333333 699.5730408333334 918.54137375C646.7752958333333 971.3387850833332 575.1670925 1001 500.5 1001C425.8329075000001 1001 354.2247041666667 971.3387850833332 301.4269591666667 918.54137375C248.6300483333333 865.7440458333333 218.96875 794.1358425 218.96875 719.46875V604.7708333333333H187.6875C165.5637316666667 604.7708333333333 144.3467025 595.9820533333333 128.7027408333333 580.3389258333333C113.0596133333333 564.6949641666666 104.2708333333333 543.477935 104.2708333333333 521.3541666666666V83.4166666666666C104.2708333333333 61.2945666666666 113.0596133333333 40.0733666666665 128.7027408333333 24.4327416666665C144.3467025 8.7921166666665 165.5637316666667 0 187.6875 0H813.3125C835.4346 0 856.6558000000001 8.7921166666665 872.2964250000001 24.4327416666665C887.9370500000001 40.0733666666665 896.7291666666667 61.2945666666666 896.7291666666667 83.4166666666666V521.3541666666666C896.7291666666667 543.477935 887.9370500000001 564.6949641666666 872.2964250000001 580.3389258333333C856.6558000000001 595.9820533333333 835.4346 604.7708333333333 813.3125 604.7708333333333zM417.0833333333334 354.5208333333333C417.0174341666667 369.1796441666667 420.8145608333334 383.5965466666667 428.0934991666667 396.3200908333332C435.3724375 409.043635 445.8762641666667 419.624205 458.5455875 426.9965699999999C471.215745 434.368935 485.6042858333334 438.272835 500.2630966666667 438.3145433333333C514.9219075 438.3554175000001 529.3321366666668 434.5332658333333 542.0440025 427.2334733333332C554.7550341666667 419.9328466666666 565.3180866666668 409.4115025 572.6687633333333 396.7288325C580.0202741666667 384.0469966666666 583.8991491666667 369.6517825 583.9158325000001 354.9929716666666C583.9325158333334 340.3341608333333 580.0861733333334 325.9297708333333 572.7638583333334 313.2312516666666C565.4423775 300.5318983333332 554.9026816666667 289.9871974999999 542.2083333333334 282.657375V187.6875C542.2083333333334 176.6256158333333 537.8139433333334 166.0158499999999 529.9919625 158.1913666666666C522.1708158333333 150.3752249999999 511.5618841666667 145.9791666666666 500.5 145.9791666666666C489.4381158333334 145.9791666666666 478.8291841666667 150.3752249999999 471.0080375 158.1913666666666C463.1860566666667 166.0158499999999 458.7916666666667 176.6256158333333 458.7916666666667 187.6875V282.657375C446.1490366666667 289.9271375 435.6402050000001 300.3934266666667 428.3195583333333 313.0068608333334C420.9989116666667 325.620295 417.1242075 339.9370975 417.0833333333334 354.5208333333333zM323.2395833333334 719.46875C323.2395833333334 766.4815491666667 341.9149066666667 811.5682575 375.1581166666667 844.8106333333333C408.4004925 878.0538433333334 453.4872008333334 896.7291666666666 500.5 896.7291666666666C547.5127991666667 896.7291666666666 592.5995075000001 878.0538433333334 625.8418833333334 844.8106333333333C659.0850933333334 811.5682575 677.7604166666667 766.4815491666667 677.7604166666667 719.46875V625.625C677.7604166666667 620.094475 675.5632216666668 614.7900091666667 671.6526483333334 610.8786016666667C667.7412408333333 606.9680283333333 662.436775 604.7708333333333 656.90625 604.7708333333333H344.09375C338.5632250000001 604.7708333333333 333.2587591666667 606.9680283333333 329.3473516666667 610.8786016666667C325.4367783333334 614.7900091666667 323.2395833333334 620.094475 323.2395833333334 625.625V719.46875z" />
    <glyph glyph-name="pencil-alt"
      unicode="&#xEA11;"
      horiz-adv-x="1001" d="M813.3125 563.0625L563.0625 813.3125M344.09375 93.84375L31.28125 31.28125L93.84375 344.09375L719.46875 969.71875L969.71875 719.46875L344.09375 93.84375z" />
    <glyph glyph-name="picture-landscape"
      unicode="&#xEA12;"
      horiz-adv-x="1001" d="M595.2029416666667 661.3886445833333C592.8380791666667 672.316645 586.7361500000001 682.1481333333334 577.8856416666666 689.283595C569.0351333333334 696.4190566666666 557.9532291666667 700.4380716666667 546.4500708333334 700.6879045833333C534.9427416666666 700.9373204166666 523.6898333333334 697.4021220833333 514.5181708333333 690.6578845833333C505.3465083333333 683.91323 498.7983 674.3561824999999 495.9371083333333 663.54162875L402.5083562500001 465.0270624999999C401.4839995833334 462.8415458333333 399.9040879166667 460.9438166666666 397.91752 459.5173916666666C395.9309520833334 458.0867958333333 393.6027929166667 457.1692125 391.1511770833333 456.8522291666667C388.6995612500001 456.5352458333333 386.2054029166667 456.8272041666667 383.9018516666667 457.7030791666666C381.5987175 458.5789541666666 379.5625166666667 460.0053791666667 377.9838562500001 461.8530583333333L314.2201562500001 536.2982625C307.3774870833334 545.2905791666667 298.2888241666667 552.4477291666667 287.80877125 557.0940375C277.3291354166667 561.7445166666666 265.8026204166667 563.7256625 254.3148941666667 562.8581291666667C242.8271679166667 561.9905958333333 231.7556908333334 558.3035791666666 222.1423370833333 552.1390875C212.5289833333334 545.9787666666666 204.6903191666667 537.5411708333334 199.3637479166667 527.6270999999999L54.2016475 293.1386791666668C51.546495 288.83855 50.1146479166667 283.93365 50.0520854166667 278.9203083333333C49.9895229166667 273.9111374999999 51.2983304166667 268.9728708333332 53.84504125 264.6101791666667C56.3921691666667 260.2516583333333 60.0858591666667 256.6230333333333 64.5490679166667 254.0996791666667C69.01269375 251.576325 74.0860954166667 250.25 79.2516725 250.25H721.5625083333334C726.3339416666668 250.25 731.0303 251.3886375 735.2470125 253.5574708333333C739.463725 255.730475 743.0631541666667 258.8711125 745.7366583333334 262.7082791666667C748.4101625000001 266.541275 750.0743249999999 270.9540166666667 750.5831666666667 275.5586166666666C751.0920083333333 280.1632166666666 750.4288458333334 284.8178666666667 748.6562416666667 289.1138249999999L595.2029416666667 661.3886445833333zM248.7485000000001 688.1875C294.81827375 688.1875 332.1651666666667 725.5343929166667 332.1651666666667 771.6041666666666C332.1651666666667 817.6739404166667 294.81827375 855.0208333333333 248.7485000000001 855.0208333333333C202.6791433333334 855.0208333333333 165.3318333333334 817.6739404166667 165.3318333333334 771.6041666666666C165.3318333333334 725.5343929166667 202.6791433333334 688.1875 248.7485000000001 688.1875zM709.0416666666667 208.5416666666666C731.1637666666667 208.5416666666666 752.3807958333334 217.3296125 768.0255916666667 232.9744083333333C783.6703875000001 248.6192041666666 792.4583333333334 269.8362333333334 792.4583333333334 291.9583333333333V917.5833333333334C792.4583333333334 939.7066845833332 783.6703875000001 960.9241725416666 768.0255916666667 976.56784225C752.3807958333334 992.21147025 731.1637666666667 1001 709.0416666666667 1001L83.4166666666667 1001C61.2933154166667 1001 40.0758274583333 992.21147025 24.43215775 976.56784225C8.78852975 960.9241725416666 0 939.7066845833332 0 917.5833333333334L0 291.9583333333333C0 269.8362333333334 8.78852975 248.6192041666666 24.43215775 232.9744083333333C40.0758274583333 217.3296125 61.2933154166667 208.5416666666666 83.4166666666667 208.5416666666666H709.0416666666667zM83.4166666666667 896.7291666666666C83.4166666666667 902.26010875 85.6138616666667 907.5645745833332 89.5248520833333 911.4751479166666C93.4354254166667 915.3861383333332 98.73989125 917.5833333333334 104.2708333333333 917.5833333333334H688.1875C693.718025 917.5833333333334 699.023325 915.3861383333332 702.9355666666667 911.4751479166666C706.8436375 907.5645745833332 709.0416666666667 902.26010875 709.0416666666667 896.7291666666666V312.8125C709.0416666666667 307.281975 706.8436375 301.976675 702.9355666666667 298.0644333333334C699.023325 294.1563625 693.718025 291.9583333333333 688.1875 291.9583333333333H104.2708333333333C98.73989125 291.9583333333333 93.4354254166667 294.1563625 89.5248520833333 298.0644333333334C85.6138616666667 301.976675 83.4166666666667 307.281975 83.4166666666667 312.8125V896.7291666666666zM1000.6663333333335 615.8235416666666C1001.6548208333334 626.7340245833334 1000.4786458333334 637.7325120833334 997.2170541666668 648.1900424999999C993.9512916666667 658.6475729166666 988.6585041666668 668.3597754166667 981.6431625000002 676.77234625C974.62365 685.1845 966.0192208333334 692.1318570833333 956.3136916666668 697.2177712499999C946.6123333333334 702.3036854166667 936.0017333333334 705.42847375 925.0908333333334 706.4140416666667L883.3825 710.2094999999999C872.3631583333334 711.2050779166666 861.4022083333333 707.7829091666667 852.9103916666668 700.6966633333334C844.4144041666667 693.6100004166667 839.0840791666667 683.4390062499999 838.0872500000002 672.42175C837.0904208333334 661.4040766666667 840.5146750000001 650.4422924999999 847.6009208333334 641.9479733333333C854.6871666666667 633.4532370833333 864.8556583333334 628.1220779166666 875.875 627.1265L896.7291666666667 625.2913333333333C899.4610625 625.0452541666666 902.1178833333335 624.26238875 904.5453083333334 622.9881991666666C906.9727333333334 621.7144266666667 909.1290541666668 619.9735208333333 910.8808041666668 617.86599875C912.636725 615.7584766666666 913.9588791666667 613.3252124999999 914.7721916666668 610.7059291666667C915.5855041666669 608.0870629166667 915.8774625 605.3330616666666 915.6230416666668 602.602L870.1609583333334 104.2708333333333C869.6521166666666 98.7695041666666 866.9827833333334 93.6936 862.7368749999999 90.1609041666666C858.4909666666667 86.6240374999999 853.0146625 84.9181666666667 847.5133333333334 85.4186666666666L286.8282083333334 136.4696666666665C281.2743266666667 137.1536833333332 275.6391137500001 136.7115749999999 270.25873875 135.1725375C264.87836375 133.6335 259.8629366666667 131.0267291666667 255.5106720833334 127.5107166666667C251.1584075 123.9947041666666 247.5589783333334 119.6361833333333 244.92593125 114.6979166666666C242.2928841666667 109.7596499999999 240.6808570833334 104.3417374999999 240.1853620833334 98.7653333333333C239.6898670833334 93.1931 240.3209141666667 87.5749874999999 242.0413829166667 82.2530041666666C243.7618516666667 76.92685 246.5367070833334 72.0010958333332 250.1999500000001 67.7718708333333C253.8631929166667 63.5426458333333 258.3401654166667 60.0891958333333 263.3647683333334 57.6284041666665C268.38937125 55.1634416666667 273.8581679166667 53.7328458333333 279.4458333333334 53.4283749999998L860.9017083333333 0.2919583333334C871.8167791666667 -0.7048708333334 882.8194375 0.4546208333333 893.2840583333334 3.7120416666666C903.7486791666666 6.9694625 913.4708916666668 12.2539083333334 921.8918041666668 19.2692499999999C930.3127166666666 26.2845916666665 937.2654958333334 34.8890208333334 942.3622541666668 44.5945499999999C947.4548416666668 54.3000791666666 950.5871375 64.9106791666666 951.575625 75.82575L1000.6663333333335 615.8235416666666zM0 1001H1001V0H0V1001z" />
    <glyph glyph-name="plus-circle"
      unicode="&#xEA13;"
      horiz-adv-x="1001" d="M500.5 719.46875V281.53125M719.46875 500.5H281.53125M500.5 31.28125C759.6432593750001 31.28125 969.71875 241.356740625 969.71875 500.5C969.71875 759.6423209375 759.6432593750001 969.71875 500.5 969.71875C241.3576790625 969.71875 31.28125 759.6423209375 31.28125 500.5C31.28125 241.356740625 241.3576790625 31.28125 500.5 31.28125z" />
    <glyph glyph-name="search-alt"
      unicode="&#xEA14;"
      horiz-adv-x="1001" d="M987.314453125 135.4869140625L792.3931640625 330.408203125C783.5953125 339.2060546875 771.6693359375 344.09375 759.1568359375 344.09375H727.2890625C781.2492187500001 413.1080078125 813.3125 499.9134765625 813.3125 594.34375C813.3125 818.9822265625 631.2947265624999 1001 406.65625 1001S0 818.9822265625 0 594.34375S182.0177734375 187.6875 406.65625 187.6875C501.0865234375 187.6875 587.8919921875 219.7507812499999 656.90625 273.7109375V241.8431640625C656.90625 229.3306640625 661.7939453125 217.4046875 670.591796875 208.6068359375L865.5130859375 13.685546875C883.8908203125 -4.6921874999999 913.6080078125 -4.6921874999999 931.790234375 13.685546875L987.1189453125 69.0142578125C1005.4966796874997 87.3919921875 1005.4966796874997 117.1091796875001 987.314453125 135.4869140625zM406.65625 344.09375C268.4322265625001 344.09375 156.40625 455.92421875 156.40625 594.34375C156.40625 732.5677734374999 268.23671875 844.59375 406.65625 844.59375C544.8802734375 844.59375 656.90625 732.7632812500001 656.90625 594.34375C656.90625 456.1197265625 545.07578125 344.09375 406.65625 344.09375z" />
    <glyph glyph-name="share-alt"
      unicode="&#xEA15;"
      horiz-adv-x="1177.6470588235295" d="M1079.5078411764707 520.1272547058824L686.9627470588235 912.6764705882352V667.3331370588235C412.1770594117647 667.3331370588235 49.0692555294118 559.3823529411765 49.0692555294118 78.5078411764706C181.5543141176471 304.2274529411765 318.9468635294118 372.919605882353 686.9627470588235 372.919605882353V127.5803941176471L1079.5078411764707 520.1272547058824z" />
    <glyph glyph-name="trash-alt"
      unicode="&#xEA16;"
      horiz-adv-x="938.4375" d="M93.84375 594.34375V156.40625C93.84375 87.2746875 149.8371875 31.28125 218.96875 31.28125H719.46875C788.6003125 31.28125 844.59375 87.2746875 844.59375 156.40625V594.34375M31.28125 782.03125H907.15625M344.09375 782.03125V969.71875H594.34375V782.03125M469.21875 531.78125V218.96875M656.90625 531.78125V218.96875M281.53125 531.78125V218.96875" />
    <glyph glyph-name="eye-slash"
      unicode="&#xEA17;"
      horiz-adv-x="1101.1" d="M50.05 500.5C50.05 500.5 250.25 850.85 550.55 850.85C850.8499999999999 850.85 1051.05 500.5 1051.05 500.5C1051.05 500.5 850.8499999999999 150.1500000000001 550.55 150.1500000000001C250.25 150.1500000000001 50.05 500.5 50.05 500.5zM550.55 350.35C633.477845 350.35 700.6999999999999 417.5721550000001 700.6999999999999 500.5C700.6999999999999 583.4253425 633.477845 650.6500000000001 550.55 650.6500000000001C467.6246575 650.6500000000001 400.4 583.4253425 400.4 500.5C400.4 417.5721550000001 467.6246575 350.35 550.55 350.35zM100.1 50.0500000000001L1001 950.95" />
    <glyph glyph-name="location"
      unicode="&#xEA18;"
      horiz-adv-x="834.1666666666667" d="M417.0833333333334 1001C233.5666666666667 1001 41.7083333333333 859.1916666666666 41.7083333333333 625.625C41.7083333333333 404.5708333333334 375.375 66.7333333333334 387.8875000000001 54.2208333333333C396.2291666666667 45.8791666666667 404.5708333333334 41.7083333333333 417.0833333333334 41.7083333333333C429.5958333333334 41.7083333333333 437.9375 45.8791666666667 446.2791666666667 54.2208333333333C458.7916666666667 66.7333333333334 792.4583333333334 404.5708333333334 792.4583333333334 625.625C792.4583333333334 859.1916666666666 600.6 1001 417.0833333333334 1001zM417.0833333333334 500.5C346.1791666666668 500.5 291.9583333333334 554.7208333333333 291.9583333333334 625.625C291.9583333333334 696.5291666666667 346.1791666666668 750.75 417.0833333333334 750.75C487.9875 750.75 542.2083333333334 696.5291666666667 542.2083333333334 625.625C542.2083333333334 554.7208333333333 487.9875 500.5 417.0833333333334 500.5z" />
    <glyph glyph-name="eye"
      unicode="&#xEA19;"
      horiz-adv-x="1376.375" d="M62.5625 500.5C62.5625 500.5 312.8125 938.4375 688.1875 938.4375C1063.5625 938.4375 1313.8125 500.5 1313.8125 500.5C1313.8125 500.5 1063.5625 62.5625 688.1875 62.5625C312.8125 62.5625 62.5625 500.5 62.5625 500.5zM688.1875 312.8125C791.84730625 312.8125 875.875 396.843321875 875.875 500.5C875.875 604.1566781250001 791.84730625 688.1875 688.1875 688.1875C584.530821875 688.1875 500.5 604.1566781250001 500.5 500.5C500.5 396.843321875 584.530821875 312.8125 688.1875 312.8125z" />
    <glyph glyph-name="close"
      unicode="&#xEA1A;"
      horiz-adv-x="1001" d="M989.158091796875 989.15613671875C973.36692578125 1004.947302734375 947.765177734375 1004.947302734375 931.97401171875 989.15613671875L11.84386328125 69.0279433593751C-3.947302734375 53.2367773437501 -3.947302734375 27.635029296875 11.84386328125 11.84386328125C19.73846875 3.94534765625 30.08865234375 0 40.436880859375 0C50.785109375 0 61.133337890625 3.9473027343751 69.0298984375 11.845818359375L989.158091796875 931.97401171875C1004.947302734375 947.76322265625 1004.947302734375 973.364970703125 989.158091796875 989.15613671875zM989.15613671875 69.02598828125L69.02598828125 989.154181640625C53.23677734375 1004.94534765625 27.63307421875 1004.94534765625 11.84386328125 989.154181640625C-3.947302734375 973.364970703125 -3.947302734375 947.76322265625 11.84386328125 931.972056640625L931.97401171875 11.8419082031249C939.8686171875 3.94534765625 950.21880078125 -0.0019550781252 960.567029296875 -0.0019550781252C970.9152578125 -0.0019550781252 981.26544140625 3.9453476562499 989.158091796875 11.8399531249999C1004.94534765625 27.63307421875 1004.94534765625 53.234822265625 989.15613671875 69.02598828125z" />
    <glyph glyph-name="more-option"
      unicode="&#xEA1B;"
      horiz-adv-x="1001" d="M500.5 417.0833333333333C546.571025 417.0833333333333 583.9166666666667 454.428975 583.9166666666667 500.5C583.9166666666667 546.571025 546.571025 583.9166666666666 500.5 583.9166666666666C454.428975 583.9166666666666 417.0833333333334 546.571025 417.0833333333334 500.5C417.0833333333334 454.428975 454.428975 417.0833333333333 500.5 417.0833333333333zM166.8333333333334 417.0833333333333C212.9031070833334 417.0833333333333 250.25 454.428975 250.25 500.5C250.25 546.571025 212.9031070833334 583.9166666666666 166.8333333333334 583.9166666666666C120.7635595833334 583.9166666666666 83.4166666666667 546.571025 83.4166666666667 500.5C83.4166666666667 454.428975 120.7635595833334 417.0833333333333 166.8333333333334 417.0833333333333zM834.1666666666667 417.0833333333333C880.2376916666668 417.0833333333333 917.5833333333334 454.428975 917.5833333333334 500.5C917.5833333333334 546.571025 880.2376916666668 583.9166666666666 834.1666666666667 583.9166666666666C788.0956416666667 583.9166666666666 750.75 546.571025 750.75 500.5C750.75 454.428975 788.0956416666667 417.0833333333333 834.1666666666667 417.0833333333333z" />
  </font>
</defs>
</svg>
